<svg width="20" height="16" viewBox="0 0 20 16" fill="none" xmlns="http://www.w3.org/2000/svg">
<path fill-rule="evenodd" clip-rule="evenodd" d="M16.9389 15.6265H2.12902V13.4142C2.20672 10.8384 4.44453 8.87886 5.79654 6.65073V4.69123H8.04988V6.09764H11.0802V4.69123H13.3336V6.65073C14.7944 9.03689 16.9389 10.5855 16.9389 13.3825V15.6265ZM19.0369 6.65073C19.0369 6.30307 19.099 5.95542 19.0524 5.57616C17.3896 6.12925 15.7734 5.97122 14.1883 5.08629C14.1261 5.68678 14.2194 6.22406 14.437 6.72974C14.9964 7.99393 18.9903 8.42059 19.0369 6.65073ZM0.0466209 6.65073C0.0466209 6.30307 -0.0155403 5.95542 0.0310806 5.57616C1.69389 6.12925 3.31009 5.97122 4.8952 5.08629C4.95736 5.68678 4.86412 6.22406 4.64655 6.72974C4.0871 7.99393 0.0777016 8.42059 0.0466209 6.65073ZM0 5.03888C1.33647 -1.29788 17.9335 -2.0564 19.099 5.05468C17.4829 5.51295 15.8356 5.24431 14.1883 4.4858C14.2349 4.15395 14.1572 3.88531 13.9863 3.66407C13.0072 2.41568 5.99856 2.36827 5.09722 3.71148C4.95736 3.91691 4.8952 4.16975 4.91074 4.45419C3.27901 5.46555 1.63173 5.70258 0 5.03888ZM7.33503 7.53566C7.708 7.53566 8.00326 7.83591 8.00326 8.21516C8.00326 8.59442 7.708 8.89467 7.33503 8.89467C6.96206 8.89467 6.66679 8.59442 6.66679 8.21516C6.68234 7.85171 6.9776 7.53566 7.33503 7.53566ZM11.6242 11.3282C11.9971 11.3282 12.2924 11.6285 12.2924 12.0077C12.2924 12.387 11.9971 12.6872 11.6242 12.6872C11.2512 12.6872 10.9559 12.387 10.9559 12.0077C10.9559 11.6443 11.2512 11.3282 11.6242 11.3282ZM9.47959 11.3282C9.85256 11.3282 10.1478 11.6285 10.1478 12.0077C10.1478 12.387 9.85256 12.6872 9.47959 12.6872C9.10662 12.6872 8.81136 12.387 8.81136 12.0077C8.81136 11.6443 9.10662 11.3282 9.47959 11.3282ZM7.33503 11.3282C7.708 11.3282 8.00326 11.6285 8.00326 12.0077C8.00326 12.387 7.708 12.6872 7.33503 12.6872C6.96206 12.6872 6.66679 12.387 6.66679 12.0077C6.68234 11.6443 6.9776 11.3282 7.33503 11.3282ZM11.6242 9.43195C11.9971 9.43195 12.2924 9.73219 12.2924 10.1115C12.2924 10.4907 11.9971 10.791 11.6242 10.791C11.2512 10.791 10.9559 10.4907 10.9559 10.1115C10.9559 9.748 11.2512 9.43195 11.6242 9.43195ZM9.47959 9.43195C9.85256 9.43195 10.1478 9.73219 10.1478 10.1115C10.1478 10.4907 9.85256 10.791 9.47959 10.791C9.10662 10.791 8.81136 10.4907 8.81136 10.1115C8.81136 9.748 9.10662 9.43195 9.47959 9.43195ZM7.33503 9.43195C7.708 9.43195 8.00326 9.73219 8.00326 10.1115C8.00326 10.4907 7.708 10.791 7.33503 10.791C6.96206 10.791 6.66679 10.4907 6.66679 10.1115C6.68234 9.748 6.9776 9.43195 7.33503 9.43195ZM11.6242 7.53566C11.9971 7.53566 12.2924 7.83591 12.2924 8.21516C12.2924 8.59442 11.9971 8.89467 11.6242 8.89467C11.2512 8.89467 10.9559 8.59442 10.9559 8.21516C10.9559 7.85171 11.2512 7.53566 11.6242 7.53566ZM9.47959 7.53566C9.85256 7.53566 10.1478 7.83591 10.1478 8.21516C10.1478 8.59442 9.85256 8.89467 9.47959 8.89467C9.10662 8.89467 8.81136 8.59442 8.81136 8.21516C8.81136 7.85171 9.10662 7.53566 9.47959 7.53566Z" fill="white"/>
</svg>
